<svg width="14" height="14" viewBox="0 0 14 14" fill="none" xmlns="http://www.w3.org/2000/svg">
<path d="M12.5452 13.5997L12.5597 13.5766L14 10.653L9.79265 7.49748L7.85682 8.94926C7.12677 8.90582 6.43799 8.59623 5.92086 8.07909C5.40372 7.56195 5.09414 6.87316 5.0507 6.14311L6.50248 4.20732L3.34703 -4.65656e-07L0.447894 1.42835L0.423416 1.44037L0.400323 1.45485C0.277505 1.53107 0.17624 1.63746 0.106168 1.76389C0.0360946 1.89032 -0.00045213 2.03258 3.71953e-06 2.17713L3.68656e-06 2.93151C3.62302e-06 4.38505 0.286299 5.82435 0.842545 7.16724C1.39879 8.51014 2.21409 9.73032 3.2419 10.7581C4.26971 11.7859 5.48989 12.6012 6.83279 13.1575C8.17568 13.7137 9.61499 14 11.0685 14L11.8229 14C11.9675 14.0005 12.1097 13.9639 12.2362 13.8939C12.3626 13.8238 12.469 13.7225 12.5452 13.5997ZM11.0685 12.9196C5.56105 12.9196 1.0804 8.43895 1.0804 2.93151L1.0804 2.32109L3.02048 1.36541L5.15206 4.20752L3.96535 5.78986L3.96535 5.96991C3.96655 7.04764 4.39521 8.08088 5.15728 8.84295C5.91935 9.60502 6.9526 10.0337 8.03032 10.0349L8.21038 10.0349L9.79268 8.84818L12.6346 10.9795L11.6788 12.9196L11.0685 12.9196Z" fill="white"/>
</svg>
